<svg width="400" height="200" viewBox="0 0 400 200" xmlns="http://www.w3.org/2000/svg">
<defs>
<linearGradient id="bg" x1="0%" y1="0%" x2="100%" y2="0%">
<stop offset="0%" stop-color="#141414"/>
<stop offset="100%" stop-color="#1f1f1f"/>
</linearGradient>
<linearGradient id="accent" x1="0%" y1="0%" x2="100%" y2="0%">
<stop offset="0%" stop-color="#b98cff"/>
<stop offset="100%" stop-color="#7c3cff"/>
</linearGradient>
</defs>
<rect x="0" y="0" width="400" height="200" fill="url(#bg)"/>
<rect x="20" y="40" width="360" height="120" rx="20" fill="#0b0b0b" stroke="#303030" stroke-width="2"/>
<path d="M60 130 C80 60 150 40 220 50 C270 55 310 70 340 110 L330 130 Z" fill="#181818" stroke="#b98cff" stroke-width="3"/>
<circle cx="120" cy="135" r="24" fill="#050505" stroke="#b98cff" stroke-width="3"/>
<circle cx="290" cy="135" r="24" fill="#050505" stroke="#b98cff" stroke-width="3"/>
<circle cx="120" cy="135" r="10" fill="#111"/>
<circle cx="290" cy="135" r="10" fill="#111"/>
<rect x="135" y="80" width="90" height="25" rx="6" fill="#111"/>
<rect x="145" y="85" width="70" height="15" rx="4" fill="#1a1a1a"/>
<rect x="230" y="82" width="50" height="12" rx="3" fill="#1f1f1f"/>
<circle cx="245" cy="88" r="3" fill="#ffffff"/>
<circle cx="255" cy="88" r="3" fill="#b98cff"/>
<circle cx="265" cy="88" r="3" fill="#7c3cff"/>
<text x="30" y="32" fill="#ffffff" font-family="Poppins, Arial, sans-serif" font-size="18" font-weight="600">
PREMIUM MOTORS
</text>
<text x="30" y="50" fill="#bbbbbb" font-family="Poppins, Arial, sans-serif" font-size="11">
HIGH-END VEHICLE SHOWROOM
</text>
<rect x="260" y="30" width="110" height="30" rx="15" fill="url(#accent)"/>
<text x="315" y="50" text-anchor="middle" fill="#000000" font-family="Poppins, Arial, sans-serif" font-size="13" font-weight="700">
VEHICLE
</text>
</svg>
